<svg xmlns="http://www.w3.org/2000/svg" viewBox="0 0 293 48" width="293" height="48">
	<defs>
		<clipPath clipPathUnits="userSpaceOnUse" id="cp1">
			<path d="M-334 -247L626 -247L626 293.48L-334 293.48L-334 -247Z" />
		</clipPath>
	</defs>
	<style>
		tspan { white-space:pre }
		.shp0 { fill: #ffffff } 
	</style>
	<g id="Clip-Path" clip-path="url(#cp1)">
		<g id="Layer">
			<path id="Layer" fill-rule="evenodd" class="shp0" d="M9.42 1.64C10.42 2.56 10.92 3.66 10.92 4.94C10.92 6.25 10.42 7.37 9.42 8.29C8.43 9.22 7.23 9.68 5.84 9.68C4.43 9.68 3.23 9.22 2.23 8.29C1.24 7.37 0.74 6.25 0.74 4.94C0.74 3.66 1.24 2.56 2.23 1.64C3.23 0.71 4.43 0.24 5.82 0.24C7.23 0.24 8.43 0.71 9.42 1.64ZM10.56 14.01L10.56 47.62L1.16 47.62L1.16 14.01L10.56 14.01ZM37.64 13.57C40 13.57 42.05 14.08 43.8 15.1C45.55 16.13 46.91 17.58 47.89 19.48C48.86 21.36 49.34 23.61 49.34 26.22L49.34 47.62L39.94 47.62L39.94 27.88C39.95 25.82 39.42 24.21 38.35 23.06C37.28 21.89 35.8 21.31 33.91 21.31C32.65 21.31 31.53 21.58 30.57 22.12C29.6 22.67 28.85 23.45 28.31 24.48C27.78 25.51 27.5 26.75 27.48 28.19L27.48 47.62L18.08 47.62L18.08 14.01L27.04 14.01L27.04 19.94L27.44 19.94C28.19 17.99 29.45 16.44 31.21 15.29C32.98 14.14 35.13 13.57 37.64 13.57ZM69.97 0.7C71.42 0.7 72.74 0.81 73.93 1.03C75.13 1.25 76.03 1.45 76.62 1.63L74.94 8.63C74.57 8.51 74.12 8.4 73.58 8.3C73.04 8.2 72.5 8.14 71.94 8.14C70.55 8.14 69.59 8.46 69.04 9.1C68.5 9.73 68.22 10.62 68.22 11.75L68.22 14.01L74.98 14.01L74.98 21.01L68.22 21.01L68.22 47.62L58.84 47.62L58.84 21.01L54.05 21.01L54.05 14.01L58.84 14.01L58.84 11.58C58.84 9.14 59.32 7.12 60.29 5.52C61.25 3.91 62.57 2.71 64.25 1.91C65.93 1.1 67.84 0.7 69.97 0.7ZM103.75 15.75C106.24 17.2 108.17 19.23 109.53 21.83C110.88 24.43 111.56 27.47 111.56 30.94C111.56 34.38 110.88 37.41 109.53 40.02C108.17 42.62 106.24 44.64 103.75 46.09C101.25 47.54 98.29 48.27 94.86 48.27C91.43 48.27 88.47 47.54 85.97 46.09C83.48 44.64 81.55 42.62 80.19 40.02C78.84 37.41 78.17 34.38 78.17 30.94C78.17 27.47 78.84 24.43 80.19 21.83C81.55 19.23 83.48 17.2 85.97 15.75C88.47 14.3 91.43 13.57 94.86 13.57C98.29 13.57 101.25 14.3 103.75 15.75ZM90.94 22.01C89.88 22.9 89.07 24.12 88.53 25.65C87.99 27.19 87.72 28.93 87.72 30.88C87.72 32.83 87.99 34.57 88.53 36.1C89.07 37.64 89.88 38.84 90.94 39.73C92.01 40.61 93.33 41.05 94.9 41.05C96.47 41.05 97.77 40.61 98.82 39.73C99.86 38.84 100.65 37.64 101.19 36.1C101.73 34.57 102 32.83 102 30.88C102 28.93 101.73 27.19 101.19 25.65C100.65 24.12 99.86 22.9 98.82 22.01C97.77 21.12 96.47 20.68 94.9 20.68C93.33 20.68 92.01 21.12 90.94 22.01ZM135.32 13.53C135.79 13.53 136.3 13.56 136.84 13.62C137.38 13.67 137.86 13.75 138.27 13.85L138.27 22.12C137.83 22 137.22 21.88 136.44 21.78C135.67 21.68 134.95 21.62 134.31 21.62C132.92 21.62 131.69 21.92 130.6 22.52C129.52 23.1 128.67 23.92 128.04 24.97C127.41 26.02 127.1 27.23 127.1 28.6L127.1 47.62L117.7 47.62L117.7 14.01L126.82 14.01L126.82 19.87L127.17 19.87C127.79 17.78 128.83 16.2 130.29 15.13C131.74 14.06 133.42 13.53 135.32 13.53ZM161.93 13.57C164.26 13.57 166.24 14.14 167.87 15.29C169.5 16.44 170.59 17.99 171.14 19.94L171.5 19.94C172.18 18.01 173.44 16.47 175.25 15.31C177.07 14.15 179.23 13.57 181.72 13.57C184.88 13.57 187.45 14.57 189.43 16.56C191.41 18.55 192.41 21.37 192.41 25.01L192.41 47.62L183.01 47.62L183.01 26.85C183.01 24.98 182.51 23.59 181.52 22.66C180.52 21.72 179.27 21.25 177.76 21.25C176.05 21.25 174.72 21.79 173.76 22.87C172.8 23.94 172.33 25.34 172.33 27.09L172.33 47.62L163.21 47.62L163.21 26.66C163.21 25.01 162.73 23.69 161.78 22.72C160.83 21.74 159.59 21.25 158.04 21.25C157 21.25 156.06 21.51 155.22 22.03C154.39 22.55 153.73 23.27 153.25 24.2C152.76 25.12 152.52 26.2 152.52 27.44L152.52 47.62L143.11 47.62L143.11 14.01L152.08 14.01L152.08 19.94L152.48 19.94C153.19 17.97 154.36 16.41 156.01 15.27C157.66 14.14 159.63 13.57 161.93 13.57ZM214.2 13.57C216.09 13.57 217.9 13.79 219.62 14.23C221.35 14.67 222.89 15.34 224.24 16.27C225.59 17.18 226.65 18.36 227.43 19.8C228.21 21.24 228.6 22.95 228.6 24.95L228.6 47.62L219.67 47.62L219.67 42.95L219.41 42.95C218.86 44 218.13 44.93 217.22 45.72C216.31 46.52 215.22 47.14 213.93 47.59C212.65 48.03 211.17 48.25 209.5 48.25C207.33 48.25 205.41 47.88 203.71 47.13C202.02 46.38 200.68 45.26 199.7 43.79C198.72 42.3 198.24 40.45 198.24 38.23C198.24 36.37 198.58 34.8 199.27 33.53C199.96 32.26 200.9 31.24 202.09 30.47C203.29 29.69 204.65 29.11 206.17 28.71C207.7 28.32 209.3 28.04 210.98 27.88C212.95 27.67 214.54 27.48 215.75 27.3C216.95 27.12 217.83 26.85 218.37 26.49C218.91 26.12 219.19 25.58 219.19 24.86L219.19 24.73C219.19 23.35 218.75 22.28 217.87 21.52C217 20.76 215.76 20.38 214.16 20.38C212.46 20.38 211.11 20.75 210.11 21.48C209.11 22.22 208.45 23.14 208.12 24.25L199.43 23.55C199.87 21.51 200.74 19.74 202.03 18.24C203.33 16.75 205 15.59 207.05 14.78C209.11 13.97 211.49 13.57 214.2 13.57ZM219.26 32.04C218.96 32.23 218.56 32.4 218.05 32.55C217.55 32.71 216.98 32.85 216.34 32.98C215.71 33.1 215.07 33.2 214.44 33.3C213.81 33.39 213.23 33.47 212.72 33.55C211.61 33.71 210.65 33.97 209.82 34.32C209 34.67 208.36 35.14 207.9 35.73C207.45 36.32 207.22 37.05 207.22 37.92C207.22 39.19 207.69 40.16 208.62 40.83C209.56 41.49 210.75 41.82 212.19 41.82C213.58 41.82 214.8 41.55 215.86 41C216.92 40.45 217.75 39.71 218.35 38.78C218.95 37.85 219.26 36.79 219.26 35.6C219.26 35.6 219.26 32.04 219.26 32.04ZM255.47 13.57C257.83 13.57 259.88 14.08 261.63 15.1C263.38 16.13 264.75 17.58 265.72 19.48C266.69 21.36 267.17 23.61 267.17 26.22L267.17 47.62L257.77 47.62L257.77 27.88C257.79 25.82 257.26 24.21 256.18 23.06C255.11 21.89 253.63 21.31 251.74 21.31C250.48 21.31 249.36 21.58 248.4 22.12C247.43 22.67 246.68 23.45 246.14 24.48C245.61 25.51 245.33 26.75 245.31 28.19L245.31 47.62L235.91 47.62L235.91 14.01L244.88 14.01L244.88 19.94L245.27 19.94C246.02 17.99 247.28 16.44 249.05 15.29C250.81 14.14 252.96 13.57 255.47 13.57ZM286.24 5.96L286.24 14.01L292.61 14.01L292.61 21.01L286.24 21.01L286.24 37.29C286.24 38.15 286.37 38.82 286.63 39.29C286.9 39.77 287.27 40.1 287.75 40.29C288.22 40.47 288.78 40.57 289.42 40.57C289.86 40.57 290.3 40.53 290.74 40.45C291.18 40.37 291.52 40.31 291.75 40.27L293.24 47.21C292.77 47.35 292.1 47.51 291.25 47.71C290.4 47.91 289.36 48.03 288.14 48.08C287.88 48.09 287.63 48.09 287.38 48.09C285.43 48.09 283.7 47.79 282.19 47.19C280.49 46.5 279.17 45.43 278.22 43.99C277.28 42.54 276.81 40.72 276.82 38.51L276.82 21.01L272.19 21.01L272.19 14.01L276.82 14.01L276.82 5.96L286.24 5.96Z" />
		</g>
	</g>
</svg>