<svg version="1.1" viewBox="0.0 0.0 1198.0787401574803 192.0" fill="none" stroke="none" stroke-linecap="square" stroke-miterlimit="10" xmlns:xlink="http://www.w3.org/1999/xlink" xmlns="http://www.w3.org/2000/svg"><clipPath id="p.0"><path d="m0 0l1198.0787 0l0 192.0l-1198.0787 0l0 -192.0z" clip-rule="nonzero"/></clipPath><g clip-path="url(#p.0)"><path fill="#000000" fill-opacity="0.0" d="m0 0l1198.0787 0l0 192.0l-1198.0787 0z" fill-rule="evenodd"/><path fill="#ffffff" d="m36.42599 1.0414732c-5.9467964 0 -11.049992 1.914114 -15.309582 5.742342c-4.2319164 3.828228 -6.3478746 8.724475 -6.3478746 14.6887455c0 5.797825 2.1159582 10.610847 6.3478746 14.439079c4.25959 3.828228 9.362785 5.74234 15.309582 5.74234c5.974472 0 11.077667 -1.9141121 15.309582 -5.74234c4.25959 -3.8282318 6.389366 -8.641254 6.389366 -14.439079c0 -5.9642706 -2.129776 -10.8605175 -6.389366 -14.6887455c-4.2319145 -3.8282282 -9.33511 -5.742342 -15.309582 -5.742342zm17.093628 59.545593l-53.521305 17.143806l0 9.945068l15.807455 2.330223c0.3319149 5.104309 0.53936195 10.000565 0.62234116 14.688744c0.0829792 4.688202 0.12446785 10.527634 0.12446785 17.51831l0 12.275291c0 5.270752 0 11.48468 0 18.641815c0 7.1571198 -0.0829792 13.814911 -0.2489357 19.973358l-13.774476 3.037613l0 12.025635l67.544716 0l0 -12.025635l-12.737244 -2.5382843c-0.16595459 -6.32489 -0.2489357 -13.107513 -0.2489357 -20.347855c0 -7.240341 0 -13.495895 0 -18.766647l0 -33.99633l0.78829956 -37.075554l-4.3563843 -2.8295593z" fill-rule="evenodd"/><path fill="#ffffff" d="m130.5033 60.587067l-50.202156 17.143806l0 9.945068l15.558517 2.330223c0.33190918 5.104309 0.53936005 9.58445 0.62233734 13.440414c0.082977295 3.8282242 0.12446594 9.223808 0.12446594 16.186745l0 14.855186c0 5.270752 0 11.48468 0 18.641815c0 7.1571198 -0.082977295 13.814911 -0.24893188 19.973358l-13.774475 3.037613l0 12.025635l67.046844 0l0 -12.025635l-11.990433 -2.5382843c-0.16595459 -6.32489 -0.24893188 -13.107513 -0.24893188 -20.347855c0 -7.240341 0 -13.495895 0 -18.766647l0 -39.905113c7.993622 -6.1307144 15.295761 -9.196068 21.906387 -9.196068c4.95105 0 8.5191345 1.664444 10.704254 4.9933395c2.2127533 3.3288956 3.3191528 9.085098 3.3191528 17.268639l0 26.839203c0 5.437195 0 11.692749 0 18.766647c0 7.0738983 -0.082977295 13.7733 -0.24893188 20.09819l-13.235107 2.7879486l0 12.025635l67.29578 0l0 -12.025635l-12.778732 -2.5382843c-0.16595459 -6.32489 -0.24893188 -13.010422 -0.24893188 -20.05658c0 -7.0738983 0 -13.426529 0 -19.057922l0 -29.918434c0 -14.647133 -3.3606415 -25.632484 -10.081924 -32.956047c-6.6936035 -7.3513107 -15.558517 -11.026962 -26.594696 -11.026962c-7.495758 0 -14.521286 1.5812225 -21.0766 4.743675c-6.527649 3.1347046 -13.0967865 8.62738 -19.707458 16.47802l-1.5351105 -18.392136l-4.605316 -2.8295593z" fill-rule="evenodd"/><path fill="#ffffff" d="m394.09552 74.152306c7.1361694 0 12.488281 4.174988 16.056366 12.524963c3.5681152 8.349983 5.3521423 21.637817 5.3521423 39.86351c0 18.086983 -1.7840271 31.305458 -5.3521423 39.65545c-3.5680847 8.349976 -8.920197 12.524963 -16.056366 12.524963c-7.3021545 0 -12.737244 -4.174988 -16.305328 -12.524963c-3.5680847 -8.349976 -5.3521423 -21.56845 -5.3521423 -39.65545c0 -18.225693 1.7840576 -31.513527 5.3521423 -39.86351c3.5680847 -8.349976 9.003174 -12.524963 16.305328 -12.524963zm-75.201294 -74.151115c-7.302124 0 -14.908539 1.4147799 -22.819153 4.24434c-7.9106445 2.8018212 -15.005341 7.351311 -21.284058 13.648466c-5.448944 5.63138 -9.75 11.984018 -12.903198 19.05792c-3.1255493 7.0738983 -5.365967 16.408669 -6.721283 28.004318l-17.093628 2.038948l0 15.063248l16.595749 0l0 52.430077c0 6.463608 -0.05531311 12.941086 -0.16595459 19.432419c-0.082977295 6.463608 -0.20744324 12.941086 -0.3734131 19.432419l-14.023407 2.7879486l0 12.025635l74.97133 0l0 -12.025635l-19.624481 -4.077896c-0.19363403 -6.297165 -0.2904358 -12.552719 -0.2904358 -18.766632c0 -6.241684 0 -12.511093 0 -18.808258l0 -52.430077l26.802155 0l0 -17.39347l-27.300018 0c-0.33190918 -13.454277 0.34573364 -24.051262 2.032959 -31.79094c1.7149048 -7.767418 4.868103 -14.036835 9.459595 -18.808252l2.0329895 3.0792274c3.5680847 6.297159 7.2191467 10.902128 10.953186 13.814909c3.7340393 2.8850403 7.7308655 4.3275642 11.9904175 4.3275642c5.780884 0 10.23407 -1.6644478 13.359589 -4.9933414c3.1531982 -3.3288956 4.8127747 -7.379051 4.9787292 -12.150463c-1.6872253 -6.824234 -5.4212646 -11.554035 -11.202118 -14.189412c-5.780884 -2.635376 -12.23938 -3.9530616 -19.37555 -3.9530616zm75.201294 60.585873c-12.05957 0 -23.026611 2.7324677 -32.901093 8.197403c-9.846832 5.437195 -17.619171 13.024292 -23.317047 22.761307c-5.697876 9.709274 -8.546783 21.124603 -8.546783 34.246002c0 13.121399 2.627655 24.67543 7.882965 34.66211c5.2829895 9.958954 12.764923 17.71251 22.44577 23.26065c9.708496 5.520401 21.187225 8.280624 34.436188 8.280624c13.248932 0 24.713837 -2.7602234 34.394684 -8.280624c9.680847 -5.548172 17.148956 -13.260117 22.404266 -23.135818c5.2829895 -9.903458 7.924469 -21.4991 7.924469 -34.78694c0 -13.287834 -2.8904114 -24.827995 -8.671265 -34.6205c-5.7532043 -9.820236 -13.525543 -17.36573 -23.317047 -22.636482c-9.763824 -5.298485 -20.675537 -7.947731 -32.735107 -7.947731z" fill-rule="evenodd"/><path fill="#ffffff" d="m521.0264 60.587067l-50.20218 17.143806l0 9.945068l15.558533 2.330223c0.16595459 3.412117 0.29040527 6.4358673 0.37338257 9.071236c0.082977295 2.635376 0.16595459 5.492676 0.24893188 8.571907c0.082977295 3.0514832 0.1244812 6.962944 0.1244812 11.734352l0 15.104851c0 5.270752 0 11.48468 0 18.641815c0 7.1571198 -0.082977295 13.898132 -0.24893188 20.223022l-14.023407 2.7879486l0 12.025635l75.46918 0l0 -12.025635l-20.163818 -4.3275604c-0.16595459 -5.964279 -0.2489624 -12.3585205 -0.2489624 -19.182755c0 -6.824234 0 -12.871719 0 -18.142471l0 -17.39347c1.3553467 -5.964264 3.5957642 -11.664993 6.7213135 -17.102188c3.1531372 -5.4649353 6.6105957 -9.986687 10.372314 -13.565247l1.5350952 2.038948c5.9468384 8.01709 12.488342 12.025627 19.624512 12.025627c5.0893555 0 9.335083 -1.8308868 12.737244 -5.492676c3.4020996 -3.6895218 5.186157 -8.849312 5.352112 -15.479355c-1.0234375 -6.324898 -3.5819092 -11.054703 -7.675537 -14.189407c-4.065979 -3.1624527 -8.906372 -4.743675 -14.521301 -4.743675c-6.2786865 0 -12.654236 2.7740822 -19.126587 8.322235c-6.444702 5.548149 -11.45105 13.7733 -15.019165 24.675423l-2.2819214 -30.168098l-4.6052856 -2.8295593z" fill-rule="evenodd"/><path fill="#ffffff" d="m639.5599 60.587067l-50.20215 17.143806l0 9.945068l15.558533 2.330223c0.33190918 5.104309 0.53930664 9.58445 0.62231445 13.440414c0.08300781 3.8282242 0.12445068 9.223808 0.12445068 16.186745l0 14.855186c0 5.270752 0 11.48468 0 18.641815c0 7.1571198 -0.08294678 13.814911 -0.24890137 19.973358l-13.774475 3.037613l0 12.025635l67.046814 0l0 -12.025635l-11.9904175 -2.5382843c-0.16595459 -6.32489 -0.2489624 -13.107513 -0.2489624 -20.347855c0 -7.240341 0 -13.495895 0 -18.766647l0 -39.905113c3.236206 -2.7185974 6.6383057 -4.9239883 10.206421 -6.6161804c3.5680542 -1.7199249 7.1361694 -2.5798874 10.704224 -2.5798874c5.614929 0 9.47345 1.8308868 11.575562 5.492676c2.1297607 3.6617813 3.1947021 10.01442 3.1947021 19.057915l0 24.55059c0 5.437195 0 11.692749 0 18.766647c0 7.0738983 -0.08300781 13.690079 -0.2489624 19.848526l-13.235107 3.037613l0 12.025635l65.76068 0l0 -12.025635l-11.9904175 -2.5382843c-0.16595459 -6.32489 -0.2489624 -13.010422 -0.2489624 -20.05658c0 -7.0738983 0 -13.426529 0 -19.057922l0 -29.918434c0 -1.8863678 -0.041503906 -3.6340408 -0.12445068 -5.243004c-0.08300781 -1.6089706 -0.22131348 -3.1901932 -0.414917 -4.743675c7.1638794 -6.1307144 14.313843 -9.196068 21.450012 -9.196068c5.25531 0 8.98938 1.664444 11.202148 4.9933395c2.2127686 3.3288956 3.3191528 9.764755 3.3191528 19.307587l0 24.800255c0 5.437195 0 11.692749 0 18.766647c0 7.0738983 -0.08300781 13.690079 -0.2489624 19.848526l-12.488281 3.037613l0 12.025635l65.76068 0l0 -12.025635l-12.737244 -2.7879486c-0.19360352 -6.1584473 -0.29040527 -12.816238 -0.29040527 -19.973358c0 -7.1571198 0 -13.454285 0 -18.89148l0 -28.628487c0 -15.17421 -2.9734497 -26.506317 -8.920227 -33.99633c-5.9468384 -7.5177536 -15.378784 -11.276627 -28.295776 -11.276627c-7.302124 0 -14.230835 1.664444 -20.786194 4.9933395c-6.527649 3.3288956 -13.276611 9.251549 -20.246826 17.767975c-5.0893555 -15.174217 -16.388306 -22.761314 -33.89679 -22.761314c-7.4680786 0 -14.479797 1.7892799 -21.035156 5.3678436c-6.527649 3.5785599 -12.764893 8.863174 -18.71167 15.853851l-1.5351562 -18.392136l-4.6052856 -2.8295593z" fill-rule="evenodd"/><path fill="#ffffff" d="m890.388 122.71255l0 41.40313c-4.425476 3.0792236 -7.661682 5.048828 -9.708496 5.908783c-2.019165 0.83221436 -3.9691162 1.2483368 -5.8499756 1.2483368c-4.2319336 0 -7.8414917 -1.5257416 -10.828735 -4.57724c-2.9595947 -3.0792236 -4.439392 -7.7674103 -4.439392 -14.064575c0 -5.964264 1.7010498 -11.110184 5.1032104 -15.437744c3.4020996 -4.355301 7.9797974 -7.7257996 13.732971 -10.111511c1.5489502 -0.69351196 3.3745117 -1.4147797 5.4766235 -2.1637802c2.1297607 -0.776741 4.3010864 -1.5118637 6.513794 -2.2053986zm-5.8499756 -62.12548c-18.365967 0 -32.569153 3.3288918 -42.60962 9.986679c-10.012756 6.630043 -15.351074 15.229691 -16.014893 25.798927c2.019165 8.544159 7.703186 12.816246 17.052124 12.816246c4.951111 0 9.252136 -1.8725052 12.903198 -5.617508c3.651062 -3.7727509 5.5595703 -9.834114 5.725586 -18.184082l1.2861328 -11.2350235c1.3553467 -0.16644287 2.5446777 -0.2496643 3.5681152 -0.2496643l3.3191528 0c8.131897 0 13.594666 2.0528183 16.388306 6.158455c2.821228 4.077896 4.2318726 11.817574 4.2318726 23.219032l0 8.447075c-3.5680542 0.85996246 -7.0531616 1.7199326 -10.455322 2.5798874c-3.4020996 0.8322296 -6.3754883 1.6783295 -8.920166 2.5382843c-13.083008 3.7450027 -23.192566 7.7535553 -30.328796 12.025627c-7.1361694 4.244339 -12.073364 8.849304 -14.811707 13.814911c-2.7106323 4.937851 -4.065918 10.472137 -4.065918 16.60286c0 10.569244 3.0978394 18.66954 9.293579 24.300934c6.2234497 5.6036224 14.258545 8.405457 24.105347 8.405457c8.851074 0 15.779785 -1.6505737 20.786194 -4.9517365c5.0063477 -3.328888 10.234009 -7.8922424 15.682983 -13.690079c3.9000244 12.261429 13.248962 18.392136 28.046814 18.392136c7.634033 0 13.871277 -1.4841156 18.711731 -4.4523926c4.840454 -2.9960022 8.795715 -7.9061127 11.865967 -14.730347l-6.887268 -4.57724c-1.3552856 2.191513 -2.6276855 3.675644 -3.8170166 4.452408c-1.1893921 0.7767334 -2.461731 1.1651001 -3.8170166 1.1651001c-3.7340698 0 -5.601074 -2.468933 -5.601074 -7.406784l0 -57.298584c0 -17.199287 -3.5266113 -29.543938 -10.579773 -37.03395c-7.0532227 -7.5177536 -18.73938 -11.276627 -35.058533 -11.276627z" fill-rule="evenodd"/><path fill="#ffffff" d="m1004.3371 60.587067l-50.20215 17.143806l0 9.945068l15.558472 2.330223c0.33190918 5.104309 0.5393677 9.58445 0.6223755 13.440414c0.08294678 3.8282242 0.12445068 9.223808 0.12445068 16.186745l0 14.855186c0 5.270752 0 11.48468 0 18.641815c0 7.1571198 -0.08294678 13.814911 -0.2489624 19.973358l-13.774475 3.037613l0 12.025635l67.046875 0l0 -12.025635l-11.9904175 -2.5382843c-0.16595459 -6.32489 -0.2489624 -13.107513 -0.2489624 -20.347855c0 -7.240341 0 -13.495895 0 -18.766647l0 -39.905113c7.9936523 -6.1307144 15.295715 -9.196068 21.906433 -9.196068c4.95105 0 8.519165 1.664444 10.704224 4.9933395c2.2127686 3.3288956 3.3192139 9.085098 3.3192139 17.268639l0 26.839203c0 5.437195 0 11.692749 0 18.766647c0 7.0738983 -0.08300781 13.7733 -0.24902344 20.09819l-13.235107 2.7879486l0 12.025635l67.29578 0l0 -12.025635l-12.778687 -2.5382843c-0.16601562 -6.32489 -0.24890137 -13.010422 -0.24890137 -20.05658c0 -7.0738983 0 -13.426529 0 -19.057922l0 -29.918434c0 -14.647133 -3.3607178 -25.632484 -10.082031 -32.956047c-6.6936035 -7.3513107 -15.558472 -11.026962 -26.594604 -11.026962c-7.4958496 0 -14.521362 1.5812225 -21.07666 4.743675c-6.527649 3.1347046 -13.096741 8.62738 -19.707458 16.47802l-1.5350952 -18.392136l-4.6052856 -2.8295593z" fill-rule="evenodd"/><path fill="#ffffff" d="m1139.4258 28.629683l-12.737305 35.785606l-18.836182 2.579895l0 15.063248l16.554321 0l0 48.851524c0 4.937851 -0.041503906 9.320892 -0.12451172 13.149124c-0.08288574 3.8282318 -0.12438965 7.961609 -0.12438965 12.400131c0 12.62207 3.22229 21.707184 9.666992 27.255325c6.47229 5.520401 15.392578 8.280624 26.76062 8.280624c9.514893 0 17.287231 -1.7892914 23.317017 -5.3678436c6.057495 -3.5785675 10.787231 -8.59964 14.189453 -15.063248l-6.3894043 -6.1584625c-4.7574463 3.7450104 -9.348999 5.617523 -13.774414 5.617523c-3.7341309 0 -6.8320312 -1.4009094 -9.293701 -4.2027283c-2.46167 -2.801834 -3.692505 -7.1848907 -3.692505 -13.149139l0 -71.61283l26.76062 0l0 -17.39347l-26.76062 0l0.49780273 -36.03528z" fill-rule="evenodd"/></g></svg>