<svg xmlns="http://www.w3.org/2000/svg" width="434" height="127" viewBox="0 0 434 127"><path d="M 70.857 27.58 L 70.857 26.85 C 60.584 26.85 55.447 33.943 55.447 48.13 C 55.447 50.43 55.69 53.693 56.177 57.92 C 56.67 62.147 57.407 67.337 58.387 73.49 C 58.387 74.05 58.42 74.747 58.487 75.58 C 58.554 76.42 58.657 77.433 58.797 78.62 C 58.937 79.807 59.044 80.82 59.117 81.66 C 59.184 82.5 59.217 83.2 59.217 83.76 C 59.217 86.273 58.85 88.3 58.117 89.84 C 57.384 91.373 56.074 92.317 54.187 92.67 L 53.037 92.88 C 49.404 92.88 45.387 90.327 40.987 85.22 C 48.394 85.22 52.097 81.31 52.097 73.49 C 52.097 72.37 51.467 67.13 50.207 57.77 C 49.927 55.95 49.734 54.203 49.627 52.53 C 49.527 50.85 49.477 49.207 49.477 47.6 C 49.477 38.66 52.377 31.813 58.177 27.06 L 58.067 26.75 C 54.014 27.723 51.22 28.21 49.687 28.21 C 49.127 28.21 46.96 27.897 43.187 27.27 C 42.347 27.13 41.507 27.027 40.667 26.96 C 39.834 26.887 38.96 26.85 38.047 26.85 L 37.317 26.85 C 34.17 26.85 31.534 27.9 29.407 30 C 27.274 32.093 25.857 34.713 25.157 37.86 L 25.787 37.96 C 27.327 34.747 29.284 33.14 31.657 33.14 L 32.287 33.14 C 33.334 33.14 34.87 33.35 36.897 33.77 C 37.944 33.91 38.854 34.03 39.627 34.13 C 40.394 34.237 41.02 34.29 41.507 34.29 C 43.674 34.29 46.4 33.523 49.687 31.99 C 46.334 35.903 44.097 39.22 42.977 41.94 C 41.79 44.807 40.95 48.753 40.457 53.78 C 37.317 53.78 34.54 54.533 32.127 56.04 C 29.72 57.54 28.13 59.757 27.357 62.69 C 30.784 61.437 33.474 60.81 35.427 60.81 C 37.667 60.81 39.344 61.367 40.457 62.48 C 42.764 64.58 43.917 68.53 43.917 74.33 C 43.917 76.63 43.674 78.723 43.187 80.61 C 42.28 82.71 40.01 83.723 36.377 83.65 L 34.067 83.55 L 31.767 83.65 C 28.62 84.143 26.174 85.647 24.427 88.16 C 22.68 90.673 21.807 93.537 21.807 96.75 L 22.017 96.86 C 24.044 93.367 26.697 91.62 29.977 91.62 C 31.724 91.62 35.604 92.703 41.617 94.87 C 45.317 96.057 48.32 96.65 50.627 96.65 L 51.777 96.65 C 57.65 96.65 62.157 93.577 65.297 87.43 C 67.257 83.583 68.237 78.76 68.237 72.96 C 68.237 71.353 68.027 68.717 67.607 65.05 C 67.187 61.383 66.524 56.58 65.617 50.64 C 65.264 47.707 65 45.21 64.827 43.15 C 64.654 41.09 64.53 39.463 64.457 38.27 L 64.357 36.49 C 64.217 33.977 64.67 32.02 65.717 30.62 C 66.624 29.433 68.337 28.42 70.857 27.58 ZM 106.907 96.23 L 116.337 88.47 L 115.287 87.43 L 113.087 88.68 C 111.62 87.707 110.64 86.59 110.147 85.33 L 110.147 57.77 C 110.92 56.583 111.69 55.43 112.457 54.31 C 113.224 53.19 113.994 52.14 114.767 51.16 L 113.717 50.01 L 109.207 53.58 L 101.977 46.87 C 100.437 48.263 98.55 49.87 96.317 51.69 C 94.084 53.503 91.5 55.493 88.567 57.66 C 88.567 52.98 86.364 49.313 81.957 46.66 L 73.367 54.52 L 74.417 55.67 L 76.087 54.52 C 77.767 55.913 78.607 57.52 78.607 59.34 L 78.607 86.27 L 75.677 89.52 L 83.637 96.23 L 91.187 89.52 L 88.357 85.96 L 88.357 59.97 L 95.797 54.52 L 100.507 58.61 L 100.507 83.65 C 100.507 86.797 100.944 89.277 101.817 91.09 C 102.69 92.91 104.387 94.623 106.907 96.23 ZM 137.922 95.91 L 148.302 86.59 L 147.142 85.33 L 143.582 88.26 L 136.032 83.44 L 136.032 53.47 L 143.162 53.47 L 143.892 48.13 L 136.032 48.13 L 136.032 37.44 L 145.052 39.32 L 147.142 32.09 L 137.082 29.68 C 133.102 33.247 129.295 35.833 125.662 37.44 L 125.662 48.13 L 121.052 48.13 L 120.102 53.47 L 125.452 53.47 L 125.452 80.4 C 125.452 83.687 124.579 86.203 122.832 87.95 C 129.119 90.397 134.149 93.05 137.922 95.91 ZM 186.026 88.16 L 186.026 53.99 C 181.486 53.363 175.932 50.92 169.366 46.66 C 165.032 50.713 160.069 53.507 154.476 55.04 L 154.476 79.88 C 154.476 83.72 153.532 86.41 151.646 87.95 C 158.706 89.417 164.996 92.177 170.516 96.23 C 174.709 92.663 179.879 89.973 186.026 88.16 Z M 176.176 59.13 L 176.176 87.95 C 174.916 87.603 173.379 87.08 171.566 86.38 C 170.239 85.887 168.962 85.397 167.736 84.91 C 166.516 84.423 165.312 83.933 164.126 83.44 L 164.126 54.52 L 176.176 59.13 ZM 218.202 60.18 L 225.112 54.2 L 218.302 46.76 L 207.722 54.83 C 207.442 52.663 206.742 50.987 205.622 49.8 C 204.782 48.827 203.279 47.78 201.112 46.66 L 192.202 54.52 L 193.362 55.67 L 195.142 54.52 C 196.815 55.913 197.652 57.52 197.652 59.34 L 197.652 80.4 C 197.652 83.893 196.709 86.41 194.822 87.95 C 199.855 89.903 204.329 92.557 208.242 95.91 L 217.782 87.74 L 216.522 86.48 L 213.482 88.68 L 207.822 84.28 L 207.822 57.14 L 211.912 53.99 L 218.202 60.18 ZM 283.38 96.23 L 292.81 88.47 L 291.56 87.43 L 289.56 88.68 C 288.027 87.707 286.98 86.59 286.42 85.33 L 286.42 57.77 C 286.7 57.277 287.033 56.753 287.42 56.2 C 287.8 55.64 288.237 55.01 288.73 54.31 C 289.077 53.823 289.443 53.317 289.83 52.79 C 290.21 52.263 290.61 51.72 291.03 51.16 L 289.88 50.01 L 285.58 53.58 L 278.46 46.87 C 272.587 51.69 268.043 55.287 264.83 57.66 C 263.783 53.4 261.547 49.733 258.12 46.66 L 242.93 57.77 C 242.93 52.81 240.66 49.107 236.12 46.66 L 227.73 54.52 L 228.68 55.67 L 230.35 54.52 C 232.097 55.847 232.97 57.453 232.97 59.34 L 232.97 86.27 L 230.14 89.52 L 237.9 96.23 L 245.55 89.52 L 242.72 85.96 L 242.72 60.39 L 251 54.2 C 253.793 56.087 255.19 57.8 255.19 59.34 L 255.19 86.27 L 252.05 89.52 L 260.12 96.23 L 267.56 89.52 L 264.83 85.96 L 264.83 59.97 L 272.27 54.52 L 276.78 58.61 L 276.78 83.65 C 276.78 86.863 277.2 89.343 278.04 91.09 C 278.947 93.05 280.727 94.763 283.38 96.23 ZM 326.139 95.91 L 335.149 88.37 L 333.999 87.43 L 332.109 88.37 C 330.642 87.95 329.666 86.867 329.179 85.12 L 329.179 57.66 C 329.879 54.867 331.066 52.177 332.739 49.59 L 332.529 49.17 L 329.599 51.48 L 314.719 46.55 C 311.432 49.623 307.832 50.987 303.919 50.64 L 302.559 50.54 L 307.589 63.64 C 300.669 69.853 297.209 76.173 297.209 82.6 C 297.209 86.933 299.692 91.407 304.659 96.02 L 305.179 96.02 L 319.429 84.6 C 319.429 89.767 321.666 93.537 326.139 95.91 Z M 319.429 57.14 L 319.429 68.67 L 308.639 63.43 L 304.239 51.48 L 319.429 57.14 Z M 319.539 70.55 L 319.539 81.87 L 311.679 88.58 C 307.626 84.527 305.599 80.123 305.599 75.37 C 305.599 72.157 306.612 68.733 308.639 65.1 L 319.539 70.55 ZM 371.938 96.23 L 381.368 88.47 L 380.318 87.43 L 378.118 88.68 C 376.652 87.707 375.672 86.59 375.178 85.33 L 375.178 57.77 C 375.952 56.583 376.722 55.43 377.488 54.31 C 378.255 53.19 379.025 52.14 379.798 51.16 L 378.748 50.01 L 374.238 53.58 L 367.008 46.87 C 365.468 48.263 363.582 49.87 361.348 51.69 C 359.115 53.503 356.532 55.493 353.598 57.66 C 353.598 52.98 351.395 49.313 346.988 46.66 L 338.398 54.52 L 339.448 55.67 L 341.118 54.52 C 342.798 55.913 343.638 57.52 343.638 59.34 L 343.638 86.27 L 340.708 89.52 L 348.668 96.23 L 356.218 89.52 L 353.388 85.96 L 353.388 59.97 L 360.828 54.52 L 365.538 58.61 L 365.538 83.65 C 365.538 86.797 365.975 89.277 366.848 91.09 C 367.722 92.91 369.418 94.623 371.938 96.23 ZM 398.133 53.47 L 408.823 53.47 L 408.823 48.13 L 398.133 48.13 L 398.023 34.82 L 384.403 51.9 L 384.303 53.37 L 387.963 53.37 L 387.963 80.4 C 387.963 83.48 387.02 85.997 385.133 87.95 C 388.98 89.277 393.383 91.93 398.343 95.91 L 407.773 87.74 L 406.623 86.27 L 403.683 88.58 L 398.133 83.97 L 398.133 53.47 Z" transform="matrix(1, 0, 0, 1, 0, 0)" style="fill:#fff"/></svg>