<svg width="33" height="29" viewBox="0 0 33 29" fill="none" xmlns="http://www.w3.org/2000/svg">
<path fill-rule="evenodd" clip-rule="evenodd" d="M0.121582 2.52624C0.121582 1.42168 1.01701 0.526245 2.12158 0.526245H30.2496C31.3542 0.526245 32.2496 1.42168 32.2496 2.52624V3.03223C32.2496 4.1368 31.3542 5.03223 30.2496 5.03223H2.12158C1.01701 5.03223 0.121582 4.1368 0.121582 3.03223V2.52624ZM0.121582 14.2975C0.121582 13.1929 1.01701 12.2975 2.12158 12.2975H30.2496C31.3542 12.2975 32.2496 13.1929 32.2496 14.2975V14.8035C32.2496 15.908 31.3542 16.8035 30.2496 16.8035H2.12158C1.01701 16.8035 0.121582 15.908 0.121582 14.8035V14.2975ZM32.2496 26.0687C32.2496 24.9641 31.3542 24.0687 30.2496 24.0687H2.12158C1.01701 24.0687 0.121582 24.9641 0.121582 26.0687V26.5747C0.121582 27.6793 1.01701 28.5747 2.12158 28.5747H30.2496C31.3542 28.5747 32.2496 27.6793 32.2496 26.5747V26.0687Z" fill="white"/>
</svg>
