<svg version="1.1" viewBox="0.0 0.0 480.0 360.0" fill="none" stroke="none" stroke-linecap="square" stroke-miterlimit="10" xmlns:xlink="http://www.w3.org/1999/xlink" xmlns="http://www.w3.org/2000/svg"><clipPath id="g540e178549_0_150.0"><path d="m0 0l480.0 0l0 360.0l-480.0 0l0 -360.0z" clip-rule="nonzero"/></clipPath><g clip-path="url(#g540e178549_0_150.0)"><path fill="#000000" fill-opacity="0.0" d="m0 0l480.0 0l0 360.0l-480.0 0z" fill-rule="evenodd"/><path fill="#d9d9d9" d="m192.0 180.0l0 0c0 -26.509674 21.490326 -48.0 48.0 -48.0l0 0c12.730392 0 24.939392 5.057129 33.94113 14.058868c9.0017395 9.001755 14.058868 21.21074 14.058868 33.94113l0 0c0 26.509674 -21.490326 48.0 -48.0 48.0l0 0c-26.509674 0 -48.0 -21.490326 -48.0 -48.0z" fill-rule="evenodd"/><path fill="#ffffff" d="m204.0 180.0l0 0c0 -19.882248 16.117752 -36.0 36.0 -36.0l0 0c9.547791 0 18.704529 3.7928467 25.455841 10.544159c6.7513123 6.7513123 10.544159 15.908051 10.544159 25.455841l0 0c0 19.882248 -16.117737 36.0 -36.0 36.0l0 0c-19.882248 0 -36.0 -16.117752 -36.0 -36.0z" fill-rule="evenodd"/><path fill="#d9d9d9" d="m264.0 180.0l-24.0 -4.8031464l-24.0 4.8031464l24.0 4.8031464z" fill-rule="evenodd"/><path fill="#fc4c4c" d="m240.0 175.19685l24.0 4.8031464l-24.0 4.8031464z" fill-rule="evenodd"/></g></svg>