<svg xmlns="http://www.w3.org/2000/svg" xmlns:xlink="http://www.w3.org/1999/xlink" fill="none" stroke="none" stroke-linecap="square" stroke-miterlimit="10" version="1.1" viewBox="0 0 960 960"><clipPath id="p.0"><path d="m0 0l960.0 0l0 960.0l-960.0 0l0 -960.0z" clip-rule="nonzero"/></clipPath><g clip-path="url(#p.0)"><path fill="#000" fill-opacity="0" fill-rule="evenodd" d="m0 0l960.0 0l0 960.0l-960.0 0z"/><path fill="#0c343d" fill-rule="evenodd" d="m0.005224672 26.885593l0.15574855 -2.7210197l0.9619764 -5.2771263l2.0797014 -4.800721l2.885929 -4.324312l3.6738338 -3.6829958l4.324312 -2.8767672l4.800721 -2.0797014l5.2771263 -0.9619764l2.7210197 -0.15574855l906.2367 0l2.5560913 0.15574855l5.2771606 0.9619764l4.80072 2.0797014l4.4800415 2.8767672l1.9239502 1.7682042l1.7590332 1.9147916l2.87677 4.4800615l2.079712 4.80072l0.9619751 5.2771263l0.16491699 2.5652714l0 906.2367l-0.16491699 2.7210083l-0.9619751 5.2771606l-2.079712 4.80072l-2.87677 4.3151245l-3.6829834 3.6829834l-4.3151245 2.87677l-4.80072 2.079712l-5.2771606 0.9619751l-2.7210083 0.16491699l-906.2367 0l-2.7210197 -0.16491699l-5.2771263 -0.9619751l-4.800721 -2.079712l-4.324312 -2.87677l-3.6738338 -3.6829834l-2.885929 -4.3151245l-2.0797014 -4.80072l-0.9619764 -5.2771606l-0.15574855 -2.7210083zm239.99937 590.5527l218.24037 54.5578l0 -329.43567l-218.24037 -54.5578zm479.99872 -329.43567l-218.24036 54.5578l0 329.43567l218.24036 -54.5578z"/></g></svg>