<svg xmlns="http://www.w3.org/2000/svg" viewBox="0 0 500 500" width="500" height="500">
	<defs>
		<clipPath clipPathUnits="userSpaceOnUse" id="cp1">
			<path d="M-230 -21L730 -21L730 519.48L-230 519.48L-230 -21Z" />
		</clipPath>
	</defs>
	<style>
		tspan { white-space:pre }
		.shp0 { fill: #ffffff } 
	</style>
	<g id="Clip-Path" clip-path="url(#cp1)">
		<g id="Layer">
			<rect width="500" height="500" id="Color Fill 1" style="fill: #000000" />
			<path id="Layer" fill-rule="evenodd" class="shp0" d="M0 0L500 0L500 500L0 500L0 0ZM181.27 146.86L243.77 162.49L243.77 78.13L181.27 62.5L181.27 146.86ZM318.73 62.5L256.23 78.13L256.23 162.49L318.73 146.86L318.73 62.5ZM181.27 233.35L224.98 233.35L224.98 387.47L181.27 387.47L181.27 437.5L318.73 437.5L318.73 387.47L275.02 387.47L275.02 233.35L318.73 233.35L318.73 183.32L181.27 183.32L181.27 233.35Z" />
		</g>
	</g>
</svg>
