<svg xmlns="http://www.w3.org/2000/svg" viewBox="0 0 500 274" width="500" height="274">
	<defs>
		<clipPath clipPathUnits="userSpaceOnUse" id="cp1">
			<path d="M-230 -134L730 -134L730 406.48L-230 406.48L-230 -134Z" />
		</clipPath>
	</defs>
	<style>
		tspan { white-space:pre }
		.shp0 { fill: #ffffff } 
	</style>
	<g id="Clip-Path" clip-path="url(#cp1)">
		<g id="Layer">
			<path id="Layer" fill-rule="evenodd" class="shp0" d="M14.59 194.18C16.3 195.75 17.15 197.64 17.15 199.84C17.15 202.07 16.3 203.98 14.59 205.57C12.89 207.14 10.85 207.93 8.46 207.93C6.06 207.93 4.01 207.14 2.3 205.57C0.59 203.98 -0.26 202.07 -0.26 199.84C-0.26 197.64 0.59 195.75 2.3 194.18C4.01 192.59 6.05 191.79 8.43 191.79C10.84 191.79 12.89 192.59 14.59 194.18ZM16.54 215.34L16.54 272.82L0.46 272.82L0.46 215.34L16.54 215.34ZM62.86 214.59C66.88 214.59 70.39 215.46 73.38 217.21C76.38 218.96 78.71 221.45 80.37 224.69C82.04 227.91 82.87 231.76 82.87 236.22L82.87 272.82L66.78 272.82L66.78 239.06C66.81 235.54 65.9 232.79 64.07 230.81C62.23 228.82 59.7 227.83 56.47 227.83C54.31 227.83 52.41 228.29 50.76 229.22C49.1 230.14 47.82 231.49 46.89 233.25C45.98 235.01 45.51 237.13 45.48 239.6L45.48 272.82L29.39 272.82L29.39 215.34L44.73 215.34L44.73 225.48L45.41 225.48C46.69 222.14 48.84 219.49 51.86 217.54C54.89 215.57 58.55 214.59 62.86 214.59ZM118.15 192.58C120.62 192.58 122.88 192.77 124.92 193.15C126.97 193.52 128.51 193.86 129.53 194.16L126.65 206.13C126.02 205.94 125.24 205.75 124.31 205.58C123.4 205.4 122.47 205.31 121.51 205.31C119.14 205.31 117.49 205.85 116.56 206.94C115.62 208.02 115.16 209.54 115.16 211.48L115.16 215.34L126.72 215.34L126.72 227.31L115.16 227.31L115.16 272.82L99.11 272.82L99.11 227.31L90.92 227.31L90.92 215.34L99.11 215.34L99.11 211.19C99.11 207.02 99.94 203.56 101.59 200.81C103.24 198.07 105.49 196.01 108.35 194.64C111.23 193.27 114.49 192.58 118.15 192.58ZM175.91 218.31C180.18 220.79 183.48 224.26 185.8 228.72C188.12 233.17 189.28 238.36 189.28 244.3C189.28 250.18 188.12 255.36 185.8 259.82C183.48 264.27 180.18 267.73 175.91 270.21C171.64 272.69 166.58 273.93 160.71 273.93C154.85 273.93 149.78 272.69 145.51 270.21C141.24 267.73 137.95 264.27 135.63 259.82C133.32 255.36 132.17 250.18 132.17 244.3C132.17 238.36 133.32 233.17 135.63 228.72C137.95 224.26 141.24 220.79 145.51 218.31C149.78 215.83 154.85 214.59 160.71 214.59C166.58 214.59 171.64 215.83 175.91 218.31ZM154.01 229.03C152.19 230.55 150.82 232.63 149.89 235.26C148.97 237.87 148.51 240.85 148.51 244.19C148.51 247.53 148.97 250.51 149.89 253.13C150.82 255.75 152.19 257.81 154.01 259.32C155.84 260.83 158.09 261.58 160.78 261.58C163.46 261.58 165.69 260.83 167.48 259.32C169.27 257.81 170.62 255.75 171.53 253.13C172.46 250.51 172.92 247.53 172.92 244.19C172.92 240.85 172.46 237.87 171.53 235.26C170.62 232.63 169.27 230.55 167.48 229.03C165.69 227.51 163.46 226.75 160.78 226.75C158.09 226.75 155.84 227.51 154.01 229.03ZM229.91 214.52C230.71 214.52 231.58 214.57 232.5 214.67C233.44 214.76 234.26 214.9 234.96 215.07L234.96 229.22C234.21 229 233.17 228.81 231.83 228.64C230.5 228.45 229.28 228.36 228.18 228.36C225.81 228.36 223.7 228.87 221.84 229.89C219.99 230.89 218.53 232.29 217.46 234.09C216.39 235.88 215.85 237.95 215.85 240.3L215.85 272.82L199.77 272.82L199.77 215.34L215.37 215.34L215.37 225.36L215.97 225.36C217.03 221.79 218.81 219.09 221.3 217.26C223.8 215.43 226.66 214.52 229.91 214.52ZM275.42 214.59C279.4 214.59 282.79 215.57 285.58 217.54C288.38 219.49 290.24 222.14 291.17 225.48L291.78 225.48C292.96 222.19 295.1 219.55 298.2 217.57C301.32 215.58 305.01 214.59 309.26 214.59C314.68 214.59 319.07 216.29 322.45 219.7C325.85 223.11 327.54 227.93 327.54 234.16L327.54 272.82L311.48 272.82L311.48 237.3C311.48 234.11 310.63 231.72 308.92 230.13C307.21 228.53 305.07 227.73 302.5 227.73C299.58 227.73 297.3 228.65 295.66 230.49C294.02 232.32 293.2 234.72 293.2 237.71L293.2 272.82L277.6 272.82L277.6 236.97C277.6 234.15 276.79 231.9 275.16 230.23C273.55 228.56 271.42 227.73 268.77 227.73C266.99 227.73 265.38 228.17 263.94 229.06C262.53 229.94 261.4 231.18 260.57 232.77C259.74 234.35 259.32 236.19 259.32 238.31L259.32 272.82L243.24 272.82L243.24 215.34L258.58 215.34L258.58 225.48L259.25 225.48C260.47 222.11 262.48 219.45 265.29 217.5C268.11 215.56 271.49 214.59 275.42 214.59ZM364.81 214.59C368.04 214.59 371.14 214.97 374.09 215.72C377.05 216.46 379.68 217.62 381.98 219.2C384.29 220.77 386.11 222.78 387.44 225.24C388.78 227.7 389.45 230.64 389.45 234.06L389.45 272.82L374.18 272.82L374.18 264.84L373.73 264.84C372.79 266.64 371.55 268.22 369.99 269.58C368.43 270.94 366.56 272 364.36 272.77C362.17 273.52 359.64 273.9 356.78 273.9C353.08 273.9 349.78 273.26 346.88 271.98C343.98 270.7 341.7 268.79 340.02 266.27C338.35 263.73 337.51 260.56 337.51 256.76C337.51 253.57 338.1 250.89 339.28 248.72C340.47 246.55 342.08 244.8 344.11 243.49C346.15 242.16 348.48 241.16 351.09 240.49C353.69 239.81 356.43 239.34 359.31 239.06C362.68 238.71 365.4 238.38 367.46 238.07C369.53 237.76 371.02 237.3 371.94 236.68C372.88 236.05 373.35 235.12 373.35 233.9L373.35 233.68C373.35 231.31 372.6 229.48 371.1 228.19C369.61 226.89 367.49 226.23 364.74 226.23C361.85 226.23 359.54 226.86 357.82 228.12C356.11 229.38 354.98 230.96 354.43 232.85L339.56 231.65C340.31 228.17 341.79 225.14 344.01 222.58C346.22 220.02 349.08 218.05 352.59 216.66C356.11 215.28 360.19 214.59 364.81 214.59ZM373.47 246.18C372.96 246.5 372.27 246.79 371.41 247.06C370.54 247.32 369.57 247.56 368.48 247.78C367.4 247.98 366.31 248.17 365.23 248.33C364.14 248.49 363.16 248.63 362.29 248.75C360.39 249.03 358.74 249.47 357.33 250.08C355.93 250.67 354.83 251.48 354.05 252.49C353.27 253.5 352.89 254.75 352.89 256.23C352.89 258.41 353.68 260.06 355.27 261.21C356.88 262.34 358.92 262.91 361.39 262.91C363.75 262.91 365.84 262.44 367.65 261.5C369.46 260.56 370.88 259.3 371.91 257.71C372.95 256.11 373.47 254.29 373.47 252.27C373.47 252.27 373.47 246.18 373.47 246.18ZM435.41 214.59C439.44 214.59 442.94 215.46 445.93 217.21C448.93 218.96 451.26 221.45 452.93 224.69C454.59 227.91 455.42 231.76 455.42 236.22L455.42 272.82L439.34 272.82L439.34 239.06C439.36 235.54 438.45 232.79 436.62 230.81C434.78 228.82 432.25 227.83 429.02 227.83C426.86 227.83 424.96 228.29 423.31 229.22C421.66 230.14 420.37 231.49 419.45 233.25C418.54 235.01 418.06 237.13 418.03 239.6L418.03 272.82L401.95 272.82L401.95 215.34L417.28 215.34L417.28 225.48L417.96 225.48C419.24 222.14 421.39 219.49 424.42 217.54C427.44 215.57 431.1 214.59 435.41 214.59ZM488.02 201.57L488.02 215.34L498.93 215.34L498.93 227.31L488.02 227.31L488.02 255.15C488.02 256.63 488.25 257.77 488.7 258.58C489.15 259.39 489.78 259.96 490.6 260.28C491.42 260.6 492.37 260.76 493.46 260.76C494.22 260.76 494.97 260.69 495.72 260.56C496.47 260.42 497.05 260.32 497.46 260.25L500 272.12C499.19 272.36 498.06 272.64 496.59 272.97C495.14 273.32 493.36 273.53 491.28 273.61C490.84 273.62 490.4 273.63 489.98 273.63C486.64 273.63 483.68 273.12 481.1 272.08C478.19 270.9 475.93 269.08 474.31 266.61C472.7 264.14 471.9 261.02 471.92 257.25L471.92 227.31L463.99 227.31L463.99 215.34L471.92 215.34L471.92 201.57L488.02 201.57Z" />
			<path id="Layer" fill-rule="evenodd" class="shp0" d="M167.79 0.24L331.98 0.24L331.98 164.43L167.79 164.43L167.79 0.24ZM227.32 48.47L247.84 53.6L247.84 25.9L227.32 20.76L227.32 48.47ZM272.46 20.76L251.93 25.9L251.93 53.6L272.46 48.47L272.46 20.76ZM227.32 76.87L241.67 76.87L241.67 127.47L227.32 127.47L227.32 143.9L272.46 143.9L272.46 127.47L258.1 127.47L258.1 76.87L272.46 76.87L272.46 60.44L227.32 60.44L227.32 76.87Z" />
		</g>
	</g>
</svg>