<svg xmlns="http://www.w3.org/2000/svg" xmlns:xlink="http://www.w3.org/1999/xlink" fill="none" stroke="none" stroke-linecap="square" stroke-miterlimit="10" version="1.1" viewBox="0 0 960 540.48"><clipPath id="g542e7eae30_2_631.0"><path d="m0 0l960.0 0l0 540.4803l-960.0 0l0 -540.4803z" clip-rule="nonzero"/></clipPath><g clip-path="url(#g542e7eae30_2_631.0)"><path fill="#f1c232" fill-rule="evenodd" d="m0 0l960.0 0l0 540.4803l-960.0 0z"/><path fill="#fff" fill-rule="evenodd" d="m432.0 228.87053l0 0c0 -3.6625824 2.9691162 -6.6316833 6.6316833 -6.6316833l82.736664 0c1.7587891 0 3.4456177 0.6986847 4.68927 1.9423676c1.2437134 1.2436829 1.9423828 2.930481 1.9423828 4.689316l0 82.73665c0 3.6625671 -2.9691162 6.631653 -6.631653 6.631653l-82.736664 0c-3.6625671 0 -6.6316833 -2.9690857 -6.6316833 -6.631653z"/><path fill-rule="evenodd" stroke="#000" stroke-linecap="butt" stroke-linejoin="round" stroke-width="4" d="m432.0 228.87053l0 0c0 -3.6625824 2.9691162 -6.6316833 6.6316833 -6.6316833l82.736664 0c1.7587891 0 3.4456177 0.6986847 4.68927 1.9423676c1.2437134 1.2436829 1.9423828 2.930481 1.9423828 4.689316l0 82.73665c0 3.6625671 -2.9691162 6.631653 -6.631653 6.631653l-82.736664 0c-3.6625671 0 -6.6316833 -2.9690857 -6.6316833 -6.631653z"/><path fill="#000" fill-rule="evenodd" d="m466.80316 234.2395l12.0 3.0l0 16.196854l-12.0 -3.0z"/><path fill="#000" fill-rule="evenodd" d="m493.19684 234.2395l-12.0 3.0l0 16.196854l12.0 -3.0z"/><path fill="#000" fill-rule="evenodd" d="m466.80316 257.43634l26.393677 0l0 9.606323l-26.393677 0z"/><path fill="#000" fill-rule="evenodd" d="m466.80316 296.6332l26.393677 0l0 9.606293l-26.393677 0z"/><path fill="#000" fill-rule="evenodd" d="m475.19684 261.437l9.606323 0l0 40.80313l-9.606323 0z"/></g></svg>