<svg version="1.1" viewBox="0.0 0.0 480.0 360.0" fill="none" stroke="none" stroke-linecap="square" stroke-miterlimit="10" xmlns:xlink="http://www.w3.org/1999/xlink" xmlns="http://www.w3.org/2000/svg"><clipPath id="g771344f967_1_43.0"><path d="m0 0l480.0 0l0 360.0l-480.0 0l0 -360.0z" clip-rule="nonzero"/></clipPath><g clip-path="url(#g771344f967_1_43.0)"><path fill="#4a86e8" d="m0 0l480.0 0l0 360.0l-480.0 0z" fill-rule="evenodd"/><path fill="#ffffff" d="m83.99948 179.99954l0 0c0 -17.725296 14.5102005 -32.094498 32.409447 -32.094498l0 0c8.59552 0 16.838997 3.3813782 22.916939 9.400269c6.077957 6.018875 9.492508 14.182236 9.492508 22.69423l0 0c0 17.725296 -14.510208 32.094482 -32.409447 32.094482l0 0c-17.899246 0 -32.409447 -14.369186 -32.409447 -32.094482zm7.2738953 0l0 0c0 13.708038 11.253571 24.820587 25.135551 24.820587c13.881981 0 25.135551 -11.112549 25.135551 -24.820587l0 0c0 -13.708038 -11.253571 -24.820602 -25.135551 -24.820602l0 0c-13.881981 0 -25.135551 11.112564 -25.135551 24.820602z" fill-rule="evenodd"/><path fill="#ffffff" d="m109.20616 162.7312c-3.3119965 1.1609192 -5.7577286 2.977005 -7.337204 5.448242c-1.5794678 2.4712372 -1.8465347 5.168991 -0.8011856 8.093262c0.8949356 2.5035248 2.3995361 4.2330475 4.5138016 5.1885986c2.1182098 0.9462738 5.260811 1.1507416 9.427788 0.6134186c4.1744995 -0.5162964 7.041443 -0.55451965 8.60083 -0.11470032c1.5633392 0.430542 2.6119843 1.3926544 3.145935 2.8863525c0.5865936 1.6409607 0.40083313 3.1028442 -0.55729675 4.3856506c-0.9581299 1.2828064 -2.657402 2.3519135 -5.0978165 3.2073364c-2.537262 0.8893585 -4.7314987 1.0311279 -6.582718 0.42529297c-1.8512115 -0.60583496 -3.1781387 -1.9399414 -3.980774 -4.0023346l-5.0842056 1.7821198c1.4860764 3.669403 3.723709 6.0573883 6.7129135 7.1639557c2.9892044 1.1065521 6.4496994 0.9707489 10.381485 -0.40742493c4.0479965 -1.4189148 6.9091187 -3.475296 8.583374 -6.1691437c1.6742554 -2.6938477 1.9247894 -5.681732 0.7515869 -8.963654c-0.894928 -2.5035248 -2.381607 -4.2235565 -4.4600143 -5.160095c-2.0809174 -0.943573 -4.740593 -1.2502289 -7.979027 -0.9200134l-5.1820145 0.5024872c-2.2647552 0.24934387 -4.0559845 0.16699219 -5.37368 -0.24707031c-1.3112335 -0.4163208 -2.1849518 -1.2345886 -2.6211395 -2.4547882c-0.48130798 -1.3464203 -0.27054596 -2.596115 0.6322937 -3.749054c0.90678406 -1.1622314 2.3770218 -2.099762 4.4107056 -2.8126068c2.0336761 -0.7128601 3.8658752 -0.8105774 5.4965897 -0.2931671c1.6371689 0.5151367 2.8394012 1.6325531 3.606697 3.3522186l0.022567749 0.06311035l5.055153 -1.7719421c-1.4345627 -3.403366 -3.4710999 -5.625107 -6.1096115 -6.6651917c-2.6385193 -1.0400848 -6.0301895 -0.8337097 -10.175034 0.6191406z" fill-rule="evenodd"/><path fill="#ffffff" d="m167.58162 171.04344c-1.5147705 0 -2.8370972 0.22288513 -3.9669952 0.66864014c-1.1298981 0.44226074 -2.0055695 1.0740509 -2.626999 1.8953705c-0.61790466 0.81781006 -0.9268646 1.7935638 -0.9268646 2.9272766c0 1.3162231 0.42193604 2.4007874 1.2658386 3.253708c0.8438873 0.84939575 2.1326752 1.4460907 3.8663483 1.7900543l3.0718994 0.60546875c0.7697449 0.1544342 1.3399811 0.37556458 1.7107239 0.66337585c0.37075806 0.28781128 0.5596466 0.6528473 0.5667114 1.0950928c-0.0070648193 0.5299988 -0.27540588 0.96173096 -0.80503845 1.295166c-0.5261078 0.33345032 -1.2217102 0.50016785 -2.0867767 0.50016785c-0.8756714 0 -1.5959778 -0.1860199 -2.1609192 -0.55807495c-0.5614166 -0.37205505 -0.914505 -0.91433716 -1.0592804 -1.6268463l-4.8408813 0.2527008c0.236557 1.6847687 1.0504303 3.01503 2.4416199 3.990799c1.3911896 0.9757538 3.2608032 1.4636383 5.6088715 1.4636383c1.5430145 0 2.9041748 -0.2421875 4.0835114 -0.7265625c1.1828613 -0.48786926 2.1150208 -1.167038 2.7964783 -2.037506c0.68499756 -0.87397766 1.0274963 -1.890091 1.0274963 -3.0483704c0 -1.2705994 -0.42370605 -2.2955017 -1.2711334 -3.074707c-0.8474121 -0.78271484 -2.13443 -1.3495636 -3.8610535 -1.7005615l-3.2149048 -0.6423187c-0.82270813 -0.17900085 -1.4035339 -0.41241455 -1.7425079 -0.70022583c-0.33895874 -0.2913208 -0.50845337 -0.647583 -0.50845337 -1.0687714c0 -0.5299988 0.2612915 -0.9529419 0.7838745 -1.2688446c0.5261078 -0.31939697 1.1704865 -0.47909546 1.9331665 -0.47909546c0.56848145 0 1.0592804 0.09475708 1.4723969 0.28430176c0.41311646 0.1860199 0.74679565 0.43522644 1.0010223 0.7476196c0.25422668 0.3088684 0.41841125 0.65460205 0.4925537 1.0371704l4.5072174 -0.27903748c-0.21537781 -1.621582 -0.9692383 -2.90271 -2.261551 -3.8433685c-1.2887878 -0.9441681 -3.054245 -1.4162598 -5.2963715 -1.4162598z" fill-rule="evenodd"/><path fill="#ffffff" d="m188.82352 180.74138l0 1.8690338c0 0.6212616 -0.15888977 1.1775818 -0.47668457 1.6689758c-0.31425476 0.48788452 -0.7485504 0.8757324 -1.3029022 1.1635437c-0.5543518 0.28781128 -1.1934357 0.43171692 -1.9172821 0.43171692c-0.75561523 0 -1.37883 -0.17373657 -1.8696289 -0.521225c-0.4872589 -0.35098267 -0.730896 -0.8599243 -0.730896 -1.5268097c0 -0.45629883 0.11828613 -0.83888245 0.3548584 -1.1477509c0.24009705 -0.3123932 0.57554626 -0.5598297 1.0063019 -0.74235535c0.43078613 -0.1860199 0.93569946 -0.32115173 1.5147705 -0.4053955c0.26834106 -0.038604736 0.5684662 -0.08248901 0.9003906 -0.13162231c0.33189392 -0.0491333 0.6638031 -0.1053009 0.9957123 -0.16847229c0.33190918 -0.06669617 0.6302643 -0.14039612 0.89508057 -0.22113037c0.26483154 -0.08073425 0.47491455 -0.17022705 0.63027954 -0.2685089zm-2.6481934 -9.697937c-1.4158936 0 -2.662323 0.21235657 -3.7392426 0.63705444c-1.0733948 0.42469788 -1.9490662 1.0301666 -2.626999 1.816391c-0.67793274 0.78622437 -1.1316528 1.7145996 -1.3611755 2.7851257l4.549591 0.36854553c0.16947937 -0.58265686 0.5155182 -1.0670166 1.0380859 -1.4531097c0.5261078 -0.38609314 1.2322998 -0.57914734 2.1185608 -0.57914734c0.8403473 0 1.4882812 0.20007324 1.9437714 0.60020447c0.4590149 0.3966217 0.68852234 0.9582062 0.68852234 1.6847687l0 0.06843567c0 0.37556458 -0.14300537 0.65986633 -0.42900085 0.85292053c-0.28248596 0.18952942 -0.7397461 0.3316803 -1.3717651 0.42645264c-0.6320343 0.09477234 -1.4635773 0.19656372 -2.4945984 0.3053589c-0.87919617 0.084243774 -1.7177887 0.22990417 -2.5157776 0.43699646c-0.7979889 0.20707703 -1.5094604 0.51420593 -2.1344452 0.9213562c-0.6214447 0.40364075 -1.1139984 0.9389038 -1.4776764 1.6057892c-0.36016846 0.6668854 -0.5402374 1.4899597 -0.5402374 2.4692383c0 1.1652985 0.2559967 2.1375427 0.76797485 2.916748c0.51197815 0.7756958 1.2111053 1.3600922 2.0973663 1.7532043c0.886261 0.39311218 1.8961029 0.5896759 3.0295258 0.5896759c0.8756714 0 1.648941 -0.11582947 2.319809 -0.3474884c0.6708832 -0.23516846 1.2446594 -0.5615845 1.7213287 -0.9792633c0.4766693 -0.41767883 0.85801697 -0.90205383 1.1440125 -1.4531097l0.13771057 0l0 2.448166l4.671402 0l0 -11.898651c0 -1.049469 -0.20478821 -1.9515228 -0.6143799 -2.7061615c-0.40605164 -0.7546387 -0.96217346 -1.3723755 -1.6683502 -1.853241c-0.706192 -0.484375 -1.5112457 -0.84062195 -2.4151459 -1.0687714c-0.9039154 -0.23165894 -1.8502045 -0.3474884 -2.8388672 -0.3474884z" fill-rule="evenodd"/><path fill="#ffffff" d="m206.75757 171.02238c-0.9921875 0 -1.8696136 0.28079224 -2.6322937 0.84239197c-0.76268005 0.5615845 -1.3064423 1.3899231 -1.6312866 2.4850159l-0.18537903 0l0 -3.0746918l-4.7720337 0l0 17.642654l4.920334 0l0 -9.982239c0 -0.7195282 0.16418457 -1.3548279 0.49256897 -1.9058838c0.32836914 -0.5510559 0.7750397 -0.9810333 1.3399811 -1.2899017c0.56848145 -0.31237793 1.2146301 -0.46858215 1.9384766 -0.46858215c0.33895874 0 0.71147156 0.02809143 1.1175385 0.084243774c0.40957642 0.052642822 0.729126 0.11231995 0.9586334 0.17900085l0 -4.3435364c-0.21537781 -0.052642822 -0.4660797 -0.09300232 -0.7520752 -0.12109375c-0.2824707 -0.031585693 -0.54730225 -0.04737854 -0.7944641 -0.04737854z" fill-rule="evenodd"/><path fill="#ffffff" d="m218.10341 174.93947c0.7944641 0 1.4688568 0.2106018 2.0232239 0.63179016c0.5543518 0.42118835 0.97805786 1.0126038 1.2711182 1.7742615c0.29307556 0.7616577 0.4396057 1.6584473 0.4396057 2.6903687c0 1.0354309 -0.14830017 1.9234314 -0.4449005 2.664032c-0.29658508 0.73709106 -0.7203064 1.3039398 -1.2711182 1.7005615c-0.550827 0.39311218 -1.223465 0.58966064 -2.017929 0.58966064c-0.8085785 0 -1.4882812 -0.20005798 -2.0391083 -0.6001892c-0.55081177 -0.40364075 -0.97099304 -0.9740143 -1.2605286 -1.7110901c-0.28601074 -0.7406006 -0.4290161 -1.621582 -0.4290161 -2.6429749c0 -1.0003357 0.14125061 -1.8830872 0.4237213 -2.6482391c0.28599548 -0.76867676 0.70617676 -1.3688812 1.2605286 -1.8005981c0.55436707 -0.43171692 1.2358246 -0.647583 2.044403 -0.647583zm-1.5677185 -3.8960266c-1.3029175 0 -2.4998932 0.33345032 -3.5909576 1.0003357c-1.0910492 0.6668854 -1.9631805 1.6707306 -2.6164093 3.0115204c-0.6532135 1.3372803 -0.9798279 3.006256 -0.9798279 5.006912c0 1.9515228 0.32131958 3.5660858 0.9639435 4.843704c0.6426239 1.2741089 1.5077057 2.2200317 2.59523 2.8377686c1.0910492 0.61424255 2.3039246 0.9213562 3.6386108 0.9213562c0.93922424 0 1.7478027 -0.1368866 2.4257355 -0.4106598c0.67793274 -0.2772827 1.2322998 -0.63352966 1.6630707 -1.0687714c0.43077087 -0.43873596 0.7538452 -0.90205383 0.9692383 -1.3899231l0.21185303 0l0 3.2273712c0 1.1547699 -0.3495636 1.9848633 -1.0486908 2.4902954c-0.69558716 0.5054321 -1.5783234 0.7581482 -2.6481934 0.7581482c-0.71676636 0 -1.3240814 -0.09301758 -1.8219452 -0.27903748c-0.49786377 -0.18252563 -0.8968506 -0.41767883 -1.1969757 -0.7055054c-0.30014038 -0.28430176 -0.5190582 -0.5879059 -0.65675354 -0.91082764l-4.554886 0.61073303c0.20126343 0.88801575 0.6355591 1.6952972 1.3029022 2.4218597c0.6708832 0.72654724 1.5747986 1.3039246 2.7117462 1.7321472c1.1369629 0.43171692 2.503418 0.647583 4.0993958 0.647583c1.6948395 0 3.1937256 -0.25271606 4.496628 -0.7581482c1.3064423 -0.5054321 2.3286438 -1.2548065 3.0666046 -2.248108c0.7414856 -0.9898071 1.1122437 -2.2200317 1.1122437 -3.690689l0 -17.816406l-4.888565 0l0 2.9641418l-0.18536377 0c-0.22245789 -0.47735596 -0.5402374 -0.96173096 -0.9533539 -1.4531097c-0.40959167 -0.49490356 -0.94981384 -0.9090729 -1.620697 -1.2425232c-0.6708679 -0.33343506 -1.5024109 -0.50016785 -2.4945831 -0.50016785z" fill-rule="evenodd"/><path fill="#ffffff" d="m238.58022 174.69728c0.7167816 0 1.3470459 0.15618896 1.8908081 0.46858215c0.5437622 0.3088684 0.9692383 0.73532104 1.2764282 1.2793579c0.30718994 0.5405426 0.4607849 1.1635437 0.4607849 1.8690491l-7.447403 0c0.02947998 -0.6342926 0.19390869 -1.2134247 0.49325562 -1.7374268c0.32485962 -0.57211304 0.7732849 -1.0283966 1.3452911 -1.368866c0.575531 -0.34046936 1.2358093 -0.5106964 1.980835 -0.5106964zm-0.079437256 -3.653839c-1.7407379 0 -3.2572784 0.38258362 -4.549591 1.1477509c-1.2887878 0.76516724 -2.2880402 1.8339386 -2.997757 3.206314c-0.70617676 1.3723907 -1.0592651 2.9658966 -1.0592651 4.780533c0 1.86026 0.35308838 3.4695587 1.0592651 4.8279114c0.7097168 1.3583374 1.7213287 2.4078064 3.0348358 3.148407c1.3134918 0.7370758 2.8829956 1.1056213 4.708481 1.1056213c1.465332 0 2.7576447 -0.22288513 3.8769379 -0.66864014c1.1228333 -0.4492798 2.0391083 -1.0775452 2.748825 -1.8848267c0.7132416 -0.80729675 1.1863861 -1.7549744 1.4194336 -2.843048l-4.554886 -0.3000946c-0.16947937 0.445755 -0.4166565 0.8213196 -0.74150085 1.1266785c-0.32130432 0.3053589 -0.70970154 0.53526306 -1.1651917 0.68969727c-0.4554901 0.15444946 -0.95687866 0.23165894 -1.5041809 0.23165894c-0.82270813 0 -1.5341797 -0.17198181 -2.13443 -0.5159607c-0.6002655 -0.34747314 -1.0645752 -0.8388672 -1.3929596 -1.4741669c-0.32836914 -0.6352997 -0.4925537 -1.3899384 -0.4925537 -2.2639008l0 -0.010528564l12.086334 0l0 -1.3425598c0 -1.502243 -0.21185303 -2.813202 -0.63557434 -3.9328613c-0.42370605 -1.1231842 -1.0151367 -2.055069 -1.7742767 -2.7956696c-0.75561523 -0.74409485 -1.6401215 -1.302185 -2.6534882 -1.6742249c-1.013382 -0.37205505 -2.1062012 -0.5580902 -3.2784576 -0.5580902z" fill-rule="evenodd"/><path fill="#ffffff" d="m260.2954 171.04344c-1.3170166 0 -2.4380798 0.30186462 -3.3631897 0.90556335c-0.92510986 0.60020447 -1.5836182 1.4127502 -1.9755402 2.4376526l-0.20655823 0l0 -3.111557l-4.6925964 0l0 17.642654l4.920334 0l0 -10.19809c0.0105896 -0.7581482 0.15536499 -1.407486 0.43429565 -1.9480133c0.28248596 -0.54052734 0.67619324 -0.9529419 1.1811066 -1.2372589c0.50491333 -0.28430176 1.0875244 -0.42645264 1.7478027 -0.42645264c0.98864746 0 1.7637024 0.30537415 2.3251038 0.9160919c0.5614319 0.6072235 0.8385925 1.451355 0.83154297 2.5324097l0 10.361313l4.9203186 0l0 -11.235275c0 -1.3688812 -0.25421143 -2.5482178 -0.7626648 -3.5380096c-0.50845337 -0.99331665 -1.2217102 -1.7584839 -2.13974 -2.2955017c-0.91452026 -0.5370178 -1.987915 -0.80552673 -3.2202148 -0.80552673z" fill-rule="evenodd"/><path fill="#ffffff" d="m271.46747 167.0474l0 4.227707l-2.4257507 0l0 3.6748962l2.4257507 0l0 9.187241c-0.007080078 1.1582794 0.23657227 2.1164856 0.730896 2.8746338c0.49432373 0.7581482 1.1863708 1.3179779 2.0761719 1.6795044c0.7892151 0.3175354 1.6950684 0.4763031 2.7176208 0.4763031c0.13031006 0 0.26254272 -0.0025787354 0.39666748 -0.007736206c0.6390686 -0.02456665 1.1810913 -0.0894928 1.6259766 -0.1947937c0.4484253 -0.10179138 0.79623413 -0.18954468 1.043396 -0.26324463l-0.77856445 -3.6433105c-0.12359619 0.021057129 -0.30014038 0.052642822 -0.5296631 0.09477234c-0.22949219 0.042114258 -0.4607849 0.06317139 -0.69381714 0.06317139c-0.33190918 0 -0.62319946 -0.0491333 -0.87390137 -0.14741516c-0.2507019 -0.09828186 -0.44488525 -0.27201843 -0.5826111 -0.521225c-0.13769531 -0.24920654 -0.20654297 -0.6001892 -0.20654297 -1.0529785l0 -8.544922l3.3367004 0l0 -3.6748962l-3.3367004 0l0 -4.227707z" fill-rule="evenodd"/><path fill="#ffffff" d="m298.4771 171.04344c-1.7972412 0 -3.3473206 0.38609314 -4.650238 1.1582794c-1.2993774 0.76867676 -2.3021545 1.8374481 -3.0083313 3.206314c-0.70266724 1.3653717 -1.0539856 2.9501038 -1.0539856 4.7542114c0 1.7865448 0.34780884 3.3660126 1.043396 4.7384033c0.6991272 1.368866 1.7001343 2.4376373 3.0030518 3.206314c1.306427 0.76867676 2.868866 1.1530151 4.6872864 1.1530151c1.5783081 0 2.9447937 -0.28605652 4.0993958 -0.8581848c1.1581421 -0.57562256 2.0655823 -1.3741302 2.722351 -2.395523c0.6602783 -1.0213928 1.0292358 -2.2059937 1.1069336 -3.5538025l-4.644928 0c-0.091796875 0.6177521 -0.28601074 1.1477509 -0.5826111 1.5899963c-0.29660034 0.43875122 -0.6708679 0.77394104 -1.1228333 1.0056c-0.4519348 0.22814941 -0.95861816 0.34220886 -1.52005 0.34220886c-0.7626648 0 -1.4300232 -0.20532227 -2.0020447 -0.61598206c-0.5684509 -0.4141693 -1.0098267 -1.0161285 -1.3240662 -1.8058624c-0.31072998 -0.7897339 -0.46609497 -1.7479401 -0.46609497 -2.8746338c0 -1.1091309 0.15713501 -2.053299 0.4713745 -2.8325043c0.31777954 -0.78271484 0.7591553 -1.3794098 1.3240967 -1.7900696c0.56848145 -0.4106598 1.2340698 -0.6159973 1.9967346 -0.6159973c0.9003906 0 1.6295166 0.27026367 2.1874084 0.810791c0.56140137 0.5405426 0.9074402 1.251297 1.0380859 2.1322937l4.644928 0c-0.070617676 -1.3618622 -0.44488525 -2.5482178 -1.1228333 -3.5590668c-0.677948 -1.0108643 -1.5995178 -1.7953339 -2.7647095 -2.3534088c-1.1616821 -0.56159973 -2.5157776 -0.84239197 -4.062317 -0.84239197z" fill-rule="evenodd"/><path fill="#ffffff" d="m317.63272 174.77626c0.81915283 0 1.5023804 0.23339844 2.0496826 0.70022583c0.54730225 0.4668274 0.9604187 1.1038666 1.2393494 1.9111633c0.2824707 0.803772 0.42370605 1.7181091 0.42370605 2.7429962c0 1.0249023 -0.14123535 1.9392395 -0.42370605 2.7430115c-0.27893066 0.803772 -0.6920471 1.4373169 -1.2393494 1.9006348c-0.54730225 0.4633026 -1.2305298 0.69496155 -2.0496826 0.69496155c-0.8227234 0 -1.5130005 -0.23165894 -2.0708923 -0.69496155c-0.55789185 -0.46331787 -0.97805786 -1.0968628 -1.2605286 -1.9006348c-0.28250122 -0.803772 -0.42373657 -1.7181091 -0.42373657 -2.7430115c0 -1.0248871 0.14123535 -1.9392242 0.42373657 -2.7429962c0.2824707 -0.80729675 0.7026367 -1.4443359 1.2605286 -1.9111633c0.55789185 -0.4668274 1.248169 -0.70022583 2.0708923 -0.70022583zm-0.021209717 -3.7328186c-1.7937012 0 -3.3437805 0.38082886 -4.6502075 1.1424866c-1.306427 0.7616577 -2.3145142 1.8269196 -3.024231 3.1957855c-0.70617676 1.3653717 -1.0592651 2.9588776 -1.0592651 4.780533c0 1.8076172 0.35308838 3.3958588 1.0592651 4.7647247c0.7097168 1.3653564 1.717804 2.4288788 3.024231 3.1905212c1.306427 0.7616577 2.8565063 1.1424866 4.6502075 1.1424866c1.7937012 0 3.3437805 -0.38082886 4.650238 -1.1424866c1.306427 -0.76164246 2.3145142 -1.8251648 3.024231 -3.1905212c0.7097168 -1.368866 1.0645752 -2.9571075 1.0645752 -4.7647247c0 -1.8216553 -0.3548584 -3.4151611 -1.0645752 -4.780533c-0.7097168 -1.368866 -1.717804 -2.4341278 -3.024231 -3.1957855c-1.3064575 -0.7616577 -2.8565063 -1.1424866 -4.650238 -1.1424866z" fill-rule="evenodd"/><path fill="#ffffff" d="m337.65933 174.93947c0.7944641 0 1.4688416 0.2106018 2.0232239 0.63179016c0.5543518 0.42118835 0.97805786 1.017868 1.2711182 1.7900543c0.2930603 0.7721863 0.4396057 1.6830139 0.4396057 2.732483c0 1.049469 -0.14831543 1.9655609 -0.44491577 2.7482758c-0.29660034 0.7792053 -0.7203064 1.3864288 -1.2711182 1.8216553c-0.55081177 0.43171692 -1.2234497 0.647583 -2.0179138 0.647583c-0.80859375 0 -1.4882812 -0.21937561 -2.0391235 -0.6581116c-0.55081177 -0.44224548 -0.9709778 -1.0547333 -1.2605286 -1.8374481c-0.28601074 -0.78622437 -0.4290161 -1.6935425 -0.4290161 -2.7219543c0 -1.0178833 0.14123535 -1.9129028 0.42373657 -2.685089c0.28598022 -0.7756958 0.70617676 -1.3811646 1.2605286 -1.816391c0.5543518 -0.43522644 1.2358093 -0.6528473 2.044403 -0.6528473zm3.6280212 -9.545258l0 8.845032l-0.14831543 0c-0.21539307 -0.47735596 -0.52963257 -0.96173096 -0.942749 -1.4531097c-0.40957642 -0.49490356 -0.9480591 -0.9090729 -1.615387 -1.2425232c-0.6673584 -0.33343506 -1.4971313 -0.50016785 -2.4893188 -0.50016785c-1.302887 0 -2.499878 0.33520508 -3.5909424 1.0056c-1.0910339 0.6703949 -1.9631653 1.6777496 -2.616394 3.022049c-0.65322876 1.3442993 -0.9798279 3.0273132 -0.9798279 5.0490265c0 1.9655609 0.31777954 3.625763 0.9533386 4.980591c0.6355591 1.3513336 1.4971008 2.374466 2.5846252 3.0694427c1.0910645 0.691452 2.3110046 1.0371857 3.6598206 1.0371857c0.9533386 0 1.7636719 -0.15620422 2.4310303 -0.46858215c0.6673279 -0.31588745 1.2110901 -0.7125244 1.6312866 -1.1898651c0.42016602 -0.48086548 0.74502563 -0.96699524 0.9745178 -1.458374l0.20657349 0l0 2.82724l4.856781 0l0 -23.523544z" fill-rule="evenodd"/><path fill="#ffffff" d="m352.67075 164.0464c-0.72735596 0 -1.3523254 0.24394226 -1.8749084 0.7318268c-0.522583 0.48435974 -0.783844 1.0635071 -0.783844 1.7374115c0 0.684433 0.261261 1.2705841 0.783844 1.7584686c0.522583 0.484375 1.1510925 0.7265625 1.8855286 0.7265625c0.730896 0 1.3558655 -0.2421875 1.8749084 -0.7265625c0.522583 -0.48788452 0.7838745 -1.0740356 0.7838745 -1.7584686c0 -0.6739044 -0.2612915 -1.2530518 -0.7838745 -1.7374115c-0.51904297 -0.48788452 -1.1475525 -0.7318268 -1.8855286 -0.7318268zm-2.4363098 7.2286987l0 17.642654l4.9203186 0l0 -17.642654z" fill-rule="evenodd"/><path fill="#ffffff" d="m369.32404 171.04344c-1.3170166 0 -2.4380798 0.30186462 -3.3631897 0.90556335c-0.92510986 0.60020447 -1.5836182 1.4127502 -1.9755554 2.4376526l-0.20654297 0l0 -3.111557l-4.6925964 0l0 17.642654l4.9203186 0l0 -10.19809c0.0105896 -0.7581482 0.15536499 -1.407486 0.43432617 -1.9480133c0.2824707 -0.54052734 0.67614746 -0.9529419 1.1810913 -1.2372589c0.50491333 -0.28430176 1.0875244 -0.42645264 1.7478027 -0.42645264c0.98864746 0 1.7636719 0.30537415 2.3251038 0.9160919c0.56140137 0.6072235 0.8385925 1.451355 0.83151245 2.5324097l0 10.361313l4.920349 0l0 -11.235275c0 -1.3688812 -0.25424194 -2.5482178 -0.7626648 -3.5380096c-0.50845337 -0.99331665 -1.2217102 -1.7584839 -2.13974 -2.2955017c-0.91452026 -0.5370178 -1.987915 -0.80552673 -3.2202148 -0.80552673z" fill-rule="evenodd"/><path fill="#ffffff" d="m387.41846 174.93947c0.7944641 0 1.4688721 0.2106018 2.0232239 0.63179016c0.5543518 0.42118835 0.97805786 1.0126038 1.2711182 1.7742615c0.2930603 0.7616577 0.4396057 1.6584473 0.4396057 2.6903687c0 1.0354309 -0.14831543 1.9234314 -0.44488525 2.664032c-0.29660034 0.73709106 -0.7203064 1.3039398 -1.2711487 1.7005615c-0.55081177 0.39311218 -1.2234497 0.58966064 -2.0179138 0.58966064c-0.80859375 0 -1.4882812 -0.20005798 -2.039093 -0.6001892c-0.5508423 -0.40364075 -0.9710083 -0.9740143 -1.2605591 -1.7110901c-0.28601074 -0.7406006 -0.4289856 -1.621582 -0.4289856 -2.6429749c0 -1.0003357 0.14120483 -1.8830872 0.42370605 -2.6482391c0.28598022 -0.76867676 0.70617676 -1.3688812 1.2605286 -1.8005981c0.5543518 -0.43171692 1.2358093 -0.647583 2.044403 -0.647583zm-1.5677185 -3.8960266c-1.3029175 0 -2.4999084 0.33345032 -3.5909424 1.0003357c-1.0910645 0.6668854 -1.9631958 1.6707306 -2.6164246 3.0115204c-0.65322876 1.3372803 -0.9798279 3.006256 -0.9798279 5.006912c0 1.9515228 0.32131958 3.5660858 0.9639282 4.843704c0.64263916 1.2741089 1.507721 2.2200317 2.5952454 2.8377686c1.0910339 0.61424255 2.3039246 0.9213562 3.6386108 0.9213562c0.939209 0 1.7478027 -0.1368866 2.4257202 -0.4106598c0.677948 -0.2772827 1.2322998 -0.63352966 1.6630859 -1.0687714c0.43075562 -0.43873596 0.7538452 -0.90205383 0.9692383 -1.3899231l0.21185303 0l0 3.2273712c0 1.1547699 -0.34957886 1.9848633 -1.048706 2.4902954c-0.69558716 0.5054321 -1.5783081 0.7581482 -2.6481628 0.7581482c-0.7167969 0 -1.3240967 -0.09301758 -1.8219604 -0.27903748c-0.49786377 -0.18252563 -0.8968506 -0.41767883 -1.196991 -0.7055054c-0.30010986 -0.28430176 -0.51904297 -0.5879059 -0.6567383 -0.91082764l-4.554901 0.61073303c0.20126343 0.88801575 0.6355591 1.6952972 1.3029175 2.4218597c0.6708679 0.72654724 1.5747681 1.3039246 2.711731 1.7321472c1.1369629 0.43171692 2.503418 0.647583 4.0993958 0.647583c1.6948547 0 3.1937256 -0.25271606 4.496643 -0.7581482c1.306427 -0.5054321 2.3286438 -1.2548065 3.0665894 -2.248108c0.7415161 -0.9898071 1.1122437 -2.2200317 1.1122437 -3.690689l0 -17.816406l-4.88855 0l0 2.9641418l-0.18536377 0c-0.22247314 -0.47735596 -0.5402527 -0.96173096 -0.95336914 -1.4531097c-0.40957642 -0.49490356 -0.9497986 -0.9090729 -1.620697 -1.2425232c-0.6708679 -0.33343506 -1.5023804 -0.50016785 -2.4945679 -0.50016785z" fill-rule="evenodd"/></g></svg>